<?xml version="1.0" encoding="UTF-8"?><svg id="a" xmlns="http://www.w3.org/2000/svg" viewBox="0 0 652.11 160"><defs><style>.b{fill:#231f20;}.c{fill:#2ea84a;}.d{fill:#fff;}</style></defs><path class="b" d="M169.07,100.47c0,2.23,1.11,3.54,5.62,3.54,8.38,0,12.97-6.01,13.05-12.19.08-7.83-6.41-11.62-18.67-11.37v20.02h0ZM169.07,77.15c11.55,0,16.14-3.79,16.14-11.86,0-6.1-3.95-10.71-11.86-10.71-2.77,0-4.27,1.07-4.27,3.79v18.78h0ZM151.04,107.3v-2.14c5.77-.25,7.28-.91,7.28-6.76v-38.23c0-5.85-1.5-6.51-7.28-6.76v-2.14h23.73c12.97,0,21.2,4.78,21.2,13.84,0,7.09-5.38,11.7-11.95,12.85v.17c6.96,1.4,14.79,5.11,14.79,13.68,0,9.06-6.8,15.49-21.04,15.49h-26.74Z"/><path class="b" d="M225.95,86.05c-6.33,1.81-13.29,4.28-13.29,10.38,0,3.46,2.22,5.93,5.62,5.93,2.77,0,5.7-1.98,7.67-4.12v-12.19h0ZM235.44,101.04c0,1.07.4,1.81,1.27,1.81.79,0,1.82-.82,2.37-1.32l1.27,1.48c-1.9,3.22-5.38,5.27-9.18,5.27-4.59,0-5.22-2.97-5.22-5.77-3.8,3.3-7.44,5.77-12.81,5.77s-9.97-2.47-9.97-10.05c0-11.62,15.58-13.51,22.78-15.82,0-9.8-1.74-11.53-6.64-11.53-4.19,0-4.91,1.98-4.91,5.6,0,2.97-1.9,4.29-4.19,4.29s-4.19-1.32-4.19-4.29c0-6.1,7.44-8.9,14.56-8.9,7.91,0,14.87,3.21,14.87,12.44v21.01h0Z"/><path class="b" d="M256.17,91.65c0,9.89,2.53,13.35,7.43,13.35s8.23-3.79,8.23-15.66c0-10.71-4.11-15.49-9.1-15.49-3.16,0-5.14,2.14-6.56,3.54v14.25h0ZM256.17,117.85c0,4.37.55,4.86,6.41,5.11v2.14h-20.73v-2.14c4.27-.25,4.83-.74,4.83-5.11v-40.37c0-3.95-.95-4.78-4.83-4.78v-2.14c2.37-.41,13.29-2.97,13.76-2.97.4,0,.55.41.55.82v5.19c3.09-3.13,6.96-6.01,11.47-6.01,7.51,0,13.68,7.83,13.68,18.04,0,12.11-7.59,22.66-16.61,22.66-4.35,0-6.49-1.56-8.54-3.13v12.69h0Z"/><path class="b" d="M307.11,72.7h-8.7v24.22c0,3.13.79,4.78,2.85,4.78s3.32-1.4,5.54-3.62l1.58,1.65c-2.93,4.28-5.7,8.57-11.55,8.57s-7.91-3.46-7.91-9.64v-25.95h-4.75v-2.8c5.77-.91,10.21-5.6,11.71-14.34h2.53v13.02h8.7v4.12h0Z"/><path class="b" d="M313.83,55.73c0-3.21,2.53-5.77,5.54-5.77s5.54,2.55,5.54,5.77-2.53,5.77-5.54,5.77-5.54-2.72-5.54-5.77h0ZM309.8,107.3v-2.14c4.11-.33,4.82-1.81,4.82-5.27v-20.6c0-5.52-1.42-6.43-4.82-6.43v-2.14c4.51-.33,12.89-3.13,13.61-3.13s.71.58.71,1.48v30.82c0,3.46,1.42,5.27,4.67,5.27v2.14h-18.98Z"/><path class="b" d="M331.87,94.12h2.06c1.58,5.11,5.14,10.88,11.62,10.88,2.93,0,5.46-1.48,5.46-4.94s-2.37-4.86-6.01-6.92l-5.85-3.38c-3.72-2.14-6.8-4.45-6.8-11.45,0-5.6,4.35-10.71,11.79-10.71,5.7,0,6.57,2.14,8.62,2.14,1.34,0,1.58-.82,1.9-1.98h2.06v13.18h-2.53c-1.58-5.27-4.75-10.05-10.6-10.05-2.69,0-4.75,1.48-4.75,5.11,0,2.31.87,3.62,4.11,5.36l6.65,3.46c5.3,2.72,8.7,5.36,8.7,11.86,0,7.58-5.22,11.62-12.42,11.62-2.85,0-4.74-.33-6.25-.74-2.06-.58-3.09-1.4-4.27-1.4-.79,0-1.27.91-1.42,2.14h-2.06v-14.17h0Z"/><path class="b" d="M383.36,72.7h-8.7v24.22c0,3.13.79,4.78,2.85,4.78s3.32-1.4,5.54-3.62l1.58,1.65c-2.92,4.28-5.69,8.57-11.55,8.57s-7.91-3.46-7.91-9.64v-25.95h-4.74v-2.8c5.77-.91,10.2-5.6,11.71-14.34h2.53v13.02h8.7v4.12h0Z"/><path class="b" d="M422.36,81.1v17.3c0,5.85,1.5,6.51,6.65,6.76v2.14h-24.05v-2.14c5.14-.25,6.64-.91,6.64-6.76v-38.23c0-5.85-1.5-6.51-6.64-6.76v-2.14h24.05v2.14c-5.14.25-6.65.91-6.65,6.76v16.31h23.57v-16.31c0-5.85-1.5-6.51-6.64-6.76v-2.14h24.05v2.14c-5.14.25-6.65.91-6.65,6.76v38.23c0,5.85,1.5,6.51,6.65,6.76v2.14h-24.05v-2.14c5.14-.25,6.64-.91,6.64-6.76v-17.3h-23.57Z"/><path class="b" d="M487.85,81.93c0-4.69-1.11-10.55-6.41-10.55s-6.41,5.85-6.41,10.55h12.81ZM475.04,85.22c0,10.05,3.64,15.82,10.68,15.82,4.67,0,7.91-2.39,10.92-6.59l1.5,1.4c-2.69,5.85-7.04,12.44-16.06,12.44-10.2,0-16.53-8.73-16.53-19.03,0-12.94,6.96-21.67,16.46-21.67s14.87,7.91,15.34,17.63h-22.3Z"/><path class="b" d="M522.82,86.05c-6.33,1.81-13.29,4.28-13.29,10.38,0,3.46,2.22,5.93,5.62,5.93,2.77,0,5.7-1.98,7.67-4.12v-12.19h0ZM532.31,101.04c0,1.07.4,1.81,1.27,1.81.79,0,1.82-.82,2.37-1.32l1.27,1.48c-1.9,3.22-5.38,5.27-9.17,5.27-4.59,0-5.22-2.97-5.22-5.77-3.8,3.3-7.44,5.77-12.82,5.77s-9.97-2.47-9.97-10.05c0-11.62,15.58-13.51,22.78-15.82,0-9.8-1.74-11.53-6.65-11.53-4.19,0-4.9,1.98-4.9,5.6,0,2.97-1.9,4.29-4.19,4.29s-4.19-1.32-4.19-4.29c0-6.1,7.43-8.9,14.55-8.9,7.91,0,14.87,3.21,14.87,12.44v21.01h0Z"/><path class="b" d="M538.16,107.3v-2.14c4.27-.25,4.83-1.65,4.83-6.92v-38.73c0-4.12-.95-4.94-4.83-4.94v-2.14c2.37-.41,13.29-3.46,13.76-3.46.4,0,.55.41.55.83v48.45c0,5.27.55,6.68,4.83,6.92v2.14h-19.14Z"/><path class="b" d="M581.98,72.7h-8.7v24.22c0,3.13.79,4.78,2.85,4.78s3.32-1.4,5.54-3.62l1.58,1.65c-2.92,4.28-5.69,8.57-11.55,8.57s-7.91-3.46-7.91-9.64v-25.95h-4.74v-2.8c5.77-.91,10.2-5.6,11.71-14.34h2.53v13.02h8.7v4.12h0Z"/><path class="b" d="M598.59,100.05c0,4.37.55,4.86,4.59,5.11v2.14h-18.67v-2.14c4.03-.25,4.59-.74,4.59-5.19v-41.2c0-3.63-1.18-4.2-4.59-4.2v-2.14c4.43-.66,13.05-3.46,13.53-3.46.4,0,.55.25.55.91v22.82c3.48-2.8,7.59-5.11,11.31-5.11,7.99,0,11.47,4.12,11.47,12.85v19.61c0,4.37.55,4.86,4.59,5.11v2.14h-18.67v-2.14c4.03-.25,4.59-.74,4.59-5.11v-20.27c0-5.27-2.06-6.59-4.75-6.59-3.64,0-6.17,1.65-8.54,3.3v23.56h0Z"/><rect class="c" x="26.15" y="28.83" width="102.33" height="102.33"/><path class="d" d="M77.31,61.78c-3.82-8.21-12.14-13.9-21.8-13.9-3.42,0-6.66.71-9.6,2,.57-.04,1.14-.07,1.72-.07,8.47,0,15.79,4.87,19.33,11.97h10.35Z"/><path class="d" d="M106.99,49.81c.58,0,1.16.03,1.72.07-2.94-1.29-6.19-2-9.6-2-9.65,0-17.98,5.69-21.8,13.9h10.35c3.53-7.1,10.86-11.97,19.33-11.97h0Z"/><path class="d" d="M94.61,42.36c-.74-.22-1.49-.38-2.26-.5-.37-.06-.75-.1-1.13-.13-.46-.04-.93-.06-1.41-.06-.63,0-1.26.03-1.87.1-4.19.46-7.92,2.44-10.62,5.39h0c-2.71-2.94-6.43-4.92-10.62-5.39-.61-.07-1.24-.1-1.87-.1-.47,0-.94.02-1.41.06-.38.03-.75.08-1.13.13-.77.12-1.53.28-2.26.5-.73.21-1.44.48-2.12.78.28.03.57.06.85.09,8.33,1.06,15.12,6.26,18.57,13.26h0c3.44-7.01,10.23-12.21,18.57-13.26.29-.04.57-.06.85-.09-.68-.31-1.39-.57-2.12-.78h0Z"/><path class="d" d="M77.31,43.18h0c2.66-2.93,6.33-4.91,10.44-5.37.61-.07,1.22-.1,1.84-.1.28,0,.56,0,.84.02-1.16-.49-2.39-.83-3.65-1-.63-.08-1.27-.13-1.93-.13-.49,0-.97.03-1.44.07-.39.04-.77.1-1.16.17-.79.15-1.57.36-2.33.63-1.95.71-3.76,1.83-5.37,3.28.99.7,1.91,1.52,2.72,2.41h0Z"/><polygon class="d" points="80.56 100.58 72.85 94.35 79.07 86.64 86.78 92.86 80.56 100.58 80.56 100.58"/><polygon class="d" points="74.96 114.02 81.18 106.31 88.9 112.52 82.67 120.24 74.96 114.02 74.96 114.02"/><polygon class="d" points="84.67 73.19 78.45 80.91 70.73 74.69 76.95 66.97 84.67 73.19 84.67 73.19"/><polygon class="d" points="97.67 101.64 91.45 109.35 83.73 103.13 89.95 95.41 97.67 101.64 97.67 101.64"/><path class="d" d="M58.78,83.02l-4.56-3.68c1.22-3.29,2.85-6.27,4.8-8.86l5.97,4.82-6.22,7.71h0Z"/><polygon class="d" points="75.89 84.08 69.67 91.8 61.96 85.58 68.17 77.86 75.89 84.08 75.89 84.08"/><polygon class="d" points="53.18 96.47 59.4 88.75 67.12 94.97 60.89 102.69 53.18 96.47 53.18 96.47"/><path class="d" d="M72.4,117.19l7.59,6.11c-.81.06-1.64.08-2.49.08-3.36,0-6.38-.44-9.06-1.28l3.97-4.92h0Z"/><path class="d" d="M52.94,83.54l3.29,2.65-4.41,5.47c.11-2.81.5-5.54,1.13-8.13h0Z"/><polygon class="d" points="78 103.75 71.79 111.46 64.07 105.24 70.29 97.53 78 103.75 78 103.75"/><path class="d" d="M94.62,111.91l6.22-7.71.99.8c-.93,3.56-2.35,6.68-4.25,9.3l-2.95-2.39h0Z"/><path class="d" d="M102.85,87.84c.24,1.78.36,3.61.36,5.48,0,.49,0,.98-.02,1.46l-2.95,3.67-7.71-6.22,6.22-7.71,4.11,3.32h0Z"/><path class="d" d="M92.07,115.08l2.81,2.27c-2.33,2.17-5.17,3.81-8.53,4.83l5.72-7.1h0Z"/><path class="d" d="M57.11,113.88l4.41-5.46,7.71,6.22-4.71,5.85c-3.01-1.61-5.47-3.83-7.41-6.61h0Z"/><path class="d" d="M98.11,78.8l-7.71-6.22,3.58-4.44c2.28,2.44,4.23,5.37,5.74,8.67l-1.6,1.98h0Z"/><path class="d" d="M58.34,105.86l-3.4,4.21c-1.23-2.69-2.1-5.72-2.61-9.06l6.01,4.84h0Z"/><polygon class="d" points="89.34 89.68 81.62 83.47 87.84 75.75 95.56 81.97 89.34 89.68 89.34 89.68"/><path class="d" d="M61.71,67.42c.82-.81,1.68-1.57,2.57-2.25h8.9l-5.62,6.97-5.85-4.71h0Z"/><path class="d" d="M90.97,65.38l-3.74,4.64-6.02-4.85h9.5l.27.21h0Z"/></svg>