<?xml version="1.0" encoding="UTF-8"?><svg id="a" xmlns="http://www.w3.org/2000/svg" viewBox="0 0 24 24"><defs><style>.b{fill:#2ea84a;}.c{fill:#fff;}</style></defs><circle class="b" cx="12" cy="11.87" r="11.6"/><path class="c" d="M12,7.93c-.83-1.78-2.63-3.01-4.71-3.01-.74,0-1.44.15-2.08.43.12,0,.25-.01.37-.01,1.83,0,3.41,1.05,4.18,2.59h2.24s0,0,0,0h0Z"/><path class="c" d="M18.42,5.34c.13,0,.25,0,.37.01-.64-.28-1.34-.43-2.08-.43-2.09,0-3.89,1.23-4.71,3.01h0s2.24,0,2.24,0c0,0,0,0,0,0,.76-1.53,2.35-2.59,4.18-2.59h0Z"/><path class="c" d="M15.74,3.73c-.16-.05-.32-.08-.49-.11-.08-.01-.16-.02-.24-.03-.1,0-.2-.01-.3-.01-.14,0-.27,0-.41.02-.91.1-1.71.53-2.3,1.16h0c-.59-.64-1.39-1.07-2.3-1.16-.13-.01-.27-.02-.41-.02-.1,0-.2,0-.3.01-.08,0-.16.02-.24.03-.17.02-.33.06-.49.11-.16.05-.31.1-.46.17.06,0,.12.01.18.02,1.8.23,3.27,1.35,4.01,2.87h0c.74-1.52,2.21-2.64,4.01-2.87.06,0,.12-.01.18-.02-.15-.07-.3-.12-.46-.17h0Z"/><path class="c" d="M12,3.91h0c.58-.63,1.37-1.06,2.26-1.16.13-.01.26-.02.4-.02.06,0,.12,0,.18,0-.25-.11-.52-.18-.79-.22-.14-.02-.28-.03-.42-.03-.1,0-.21,0-.31.02-.08,0-.17.02-.25.04-.17.03-.34.08-.5.14-.42.15-.81.4-1.16.71.21.15.41.33.59.52h0Z"/><polygon class="c" points="12.7 16.32 11.03 14.97 12.38 13.3 14.05 14.65 12.7 16.32 12.7 16.32"/><polygon class="c" points="11.49 19.22 12.84 17.55 14.5 18.9 13.16 20.57 11.49 19.22 11.49 19.22"/><polygon class="c" points="13.59 10.4 12.25 12.06 10.58 10.72 11.92 9.05 13.59 10.4 13.59 10.4"/><polygon class="c" points="16.4 16.54 15.06 18.21 13.39 16.87 14.73 15.2 16.4 16.54 16.4 16.54"/><path class="c" d="M7.99,12.52l-.99-.79c.26-.71.62-1.36,1.04-1.91l1.29,1.04-1.34,1.67h0Z"/><polygon class="c" points="11.69 12.75 10.35 14.42 8.68 13.07 10.02 11.41 11.69 12.75 11.69 12.75"/><polygon class="c" points="6.78 15.43 8.13 13.76 9.8 15.1 8.45 16.77 6.78 15.43 6.78 15.43"/><path class="c" d="M10.94,19.91l1.64,1.32c-.18.01-.35.02-.54.02-.73,0-1.38-.09-1.96-.28l.86-1.06h0Z"/><path class="c" d="M6.73,12.63l.71.57-.95,1.18c.02-.61.11-1.2.24-1.76h0Z"/><polygon class="c" points="12.15 17 10.8 18.67 9.14 17.33 10.48 15.66 12.15 17 12.15 17"/><path class="c" d="M15.74,18.77l1.34-1.67.21.17c-.2.77-.51,1.44-.92,2.01l-.64-.52h0Z"/><path class="c" d="M17.52,13.56c.05.39.08.78.08,1.19,0,.11,0,.21,0,.32l-.64.79-1.67-1.34,1.34-1.67.89.72h0Z"/><path class="c" d="M15.19,19.45l.61.49c-.5.47-1.12.82-1.85,1.04l1.24-1.53h0Z"/><path class="c" d="M7.63,19.19l.95-1.18,1.67,1.34-1.02,1.27c-.65-.35-1.18-.83-1.6-1.43h0Z"/><path class="c" d="M16.5,11.61l-1.67-1.34.77-.96c.49.53.91,1.16,1.24,1.87l-.35.43h0Z"/><path class="c" d="M7.9,17.46l-.73.91c-.27-.58-.45-1.24-.56-1.96l1.3,1.05h0Z"/><polygon class="c" points="14.6 13.96 12.93 12.62 14.28 10.95 15.94 12.29 14.6 13.96 14.6 13.96"/><path class="c" d="M8.63,9.15c.18-.18.36-.34.56-.49h1.92l-1.21,1.51-1.26-1.02h0Z"/><path class="c" d="M14.95,8.71l-.81,1-1.3-1.05h2.05s.04.03.06.05h0Z"/></svg>