<?xml version="1.0" encoding="UTF-8"?><svg id="a" xmlns="http://www.w3.org/2000/svg" viewBox="0 0 486.19 184.3"><defs><style>.b{fill:#2ea84a;}.c{fill:#fff;}</style></defs><path class="c" d="M214.74,71.85c0,2.6,1.29,4.14,6.56,4.14,9.79,0,15.16-7.03,15.25-14.25.09-9.14-7.48-13.57-21.81-13.29v23.39h0ZM214.74,44.61c13.5,0,18.85-4.43,18.85-13.86,0-7.12-4.62-12.51-13.86-12.51-3.23,0-4.99,1.25-4.99,4.43v21.95h0ZM193.68,79.83v-2.51c6.74-.29,8.5-1.05,8.5-7.9V24.78c0-6.83-1.75-7.6-8.5-7.9v-2.51h27.72c15.16,0,24.77,5.59,24.77,16.17,0,8.27-6.29,13.67-13.95,15.02v.19c8.13,1.64,17.28,5.96,17.28,15.98,0,10.59-7.95,18.09-24.58,18.09h-31.24Z"/><path class="c" d="M281.18,55.01c-7.39,2.12-15.52,5-15.52,12.13,0,4.04,2.58,6.94,6.56,6.94,3.23,0,6.65-2.31,8.96-4.81v-14.25h0ZM292.27,72.52c0,1.25.47,2.12,1.48,2.12.92,0,2.13-.96,2.77-1.55l1.48,1.73c-2.22,3.75-6.29,6.16-10.72,6.16-5.36,0-6.09-3.47-6.09-6.74-4.44,3.84-8.69,6.74-14.98,6.74s-11.64-2.88-11.64-11.74c0-13.57,18.2-15.78,26.62-18.48,0-11.46-2.04-13.47-7.77-13.47-4.9,0-5.73,2.31-5.73,6.55,0,3.47-2.22,5-4.9,5s-4.9-1.55-4.9-5c0-7.12,8.69-10.39,17-10.39,9.24,0,17.37,3.75,17.37,14.54v24.55h0Z"/><path class="c" d="M316.48,61.56c0,11.55,2.96,15.59,8.69,15.59s9.61-4.43,9.61-18.29c0-12.51-4.81-18.09-10.63-18.09-3.7,0-6.01,2.51-7.66,4.14v16.65h-.01ZM316.48,92.16c0,5.1.65,5.68,7.48,5.96v2.51h-24.21v-2.51c4.99-.29,5.64-.87,5.64-5.96v-47.17c0-4.62-1.1-5.59-5.64-5.59v-2.51c2.77-.48,15.52-3.47,16.08-3.47.45,0,.65.48.65.96v6.07c3.6-3.66,8.13-7.03,13.39-7.03,8.78,0,15.99,9.14,15.99,21.08,0,14.15-8.87,26.47-19.41,26.47-5.08,0-7.57-1.83-9.98-3.66v14.82h0Z"/><path class="c" d="M375.99,39.41h-10.16v28.3c0,3.66.92,5.59,3.33,5.59s3.88-1.64,6.47-4.23l1.84,1.92c-3.42,5-6.65,10.02-13.5,10.02s-9.25-4.04-9.25-11.26v-30.32h-5.55v-3.27c6.75-1.07,11.92-6.55,13.68-16.74h2.96v15.21h10.16v4.81h.01Z"/><path class="c" d="M383.85,19.59c0-3.75,2.96-6.74,6.47-6.74s6.47,2.99,6.47,6.74-2.96,6.74-6.47,6.74-6.47-3.18-6.47-6.74h0ZM379.13,79.83v-2.51c4.81-.39,5.64-2.12,5.64-6.16v-24.06c0-6.44-1.66-7.51-5.64-7.51v-2.51c5.27-.39,15.07-3.66,15.9-3.66s.83.68.83,1.73v35.99c0,4.04,1.66,6.16,5.46,6.16v2.51h-22.19Z"/><path class="c" d="M404.92,64.44h2.4c1.84,5.96,6.01,12.7,13.59,12.7,3.42,0,6.38-1.73,6.38-5.78s-2.78-5.68-7.03-8.08l-6.83-3.95c-4.34-2.51-7.95-5.2-7.95-13.38,0-6.55,5.09-12.51,13.77-12.51,6.65,0,7.68,2.51,10.08,2.51,1.57,0,1.84-.96,2.22-2.31h2.4v15.41h-2.96c-1.84-6.16-5.55-11.74-12.38-11.74-3.14,0-5.55,1.73-5.55,5.96,0,2.69,1.01,4.23,4.81,6.26l7.77,4.04c6.2,3.18,10.17,6.26,10.17,13.86,0,8.86-6.11,13.57-14.51,13.57-3.33,0-5.55-.39-7.3-.87-2.4-.68-3.61-1.64-4.99-1.64-.92,0-1.48,1.05-1.66,2.51h-2.4v-16.56h-.03Z"/><path class="c" d="M465.07,39.41h-10.17v28.3c0,3.66.92,5.59,3.33,5.59s3.88-1.64,6.47-4.23l1.84,1.92c-3.42,5-6.65,10.02-13.5,10.02s-9.24-4.04-9.24-11.26v-30.32h-5.55v-3.27c6.74-1.07,11.91-6.55,13.68-16.74h2.96v15.21h10.17v4.81h0Z"/><path class="c" d="M214.01,141.39v20.21c0,6.83,1.75,7.6,7.77,7.9v2.51h-28.1v-2.51c6-.29,7.75-1.07,7.75-7.9v-44.66c0-6.83-1.75-7.6-7.75-7.9v-2.51h28.1v2.51c-6.01.29-7.77,1.07-7.77,7.9v19.06h27.54v-19.06c0-6.83-1.75-7.6-7.77-7.9v-2.51h28.1v2.51c-6.01.29-7.77,1.07-7.77,7.9v44.66c0,6.83,1.75,7.6,7.77,7.9v2.51h-28.1v-2.51c6-.29,7.77-1.07,7.77-7.9v-20.21s-27.54,0-27.54,0Z"/><path class="c" d="M290.52,142.35c0-5.48-1.29-12.33-7.48-12.33s-7.48,6.83-7.48,12.33h14.96,0ZM275.55,146.2c0,11.74,4.25,18.48,12.47,18.48,5.46,0,9.24-2.79,12.76-7.7l1.75,1.64c-3.14,6.83-8.22,14.54-18.76,14.54-11.92,0-19.32-10.21-19.32-22.24,0-15.11,8.13-25.32,19.22-25.32s17.37,9.24,17.93,20.6h-26.06Z"/><path class="c" d="M331.36,147.17c-7.39,2.12-15.52,5-15.52,12.13,0,4.04,2.58,6.92,6.56,6.92,3.23,0,6.65-2.31,8.96-4.81v-14.25h0ZM342.45,164.68c0,1.25.47,2.12,1.48,2.12.92,0,2.13-.96,2.77-1.55l1.48,1.73c-2.22,3.75-6.29,6.16-10.72,6.16-5.36,0-6.09-3.47-6.09-6.74-4.44,3.84-8.69,6.74-14.98,6.74s-11.64-2.88-11.64-11.74c0-13.57,18.2-15.78,26.62-18.48,0-11.46-2.04-13.47-7.77-13.47-4.9,0-5.73,2.31-5.73,6.55,0,3.47-2.22,5-4.9,5s-4.9-1.55-4.9-5c0-7.12,8.69-10.39,17-10.39,9.24,0,17.37,3.75,17.37,14.54v24.54h0Z"/><path class="c" d="M349.28,172v-2.51c4.99-.29,5.64-1.92,5.64-8.08v-45.24c0-4.82-1.1-5.78-5.64-5.78v-2.51c2.77-.48,15.52-4.04,16.08-4.04.47,0,.65.48.65.96v56.6c0,6.16.65,7.79,5.64,8.08v2.51h-22.37Z"/><path class="c" d="M400.48,131.57h-10.16v28.3c0,3.66.92,5.59,3.33,5.59s3.88-1.64,6.47-4.23l1.84,1.92c-3.42,5-6.65,10.02-13.5,10.02s-9.24-4.04-9.24-11.26v-30.32h-5.55v-3.27c6.74-1.05,11.92-6.55,13.68-16.74h2.96v15.21h10.16v4.82h0v-.03Z"/><path class="c" d="M419.88,163.53c0,5.1.65,5.68,5.36,5.96v2.51h-21.81v-2.51c4.72-.29,5.36-.87,5.36-6.07v-48.13c0-4.23-1.39-4.91-5.36-4.91v-2.51c5.17-.77,15.25-4.04,15.8-4.04.47,0,.65.29.65,1.07v26.67c4.07-3.27,8.87-5.96,13.21-5.96,9.33,0,13.41,4.81,13.41,15.02v22.91c0,5.1.65,5.68,5.36,5.96v2.51h-21.81v-2.51c4.72-.29,5.36-.87,5.36-5.96v-23.68c0-6.16-2.4-7.7-5.55-7.7-4.25,0-7.21,1.92-9.98,3.84v27.53h-.01Z"/><rect class="b" x="9.16" y="13.19" width="160" height="160"/><path class="c" d="M89.16,64.71c-5.97-12.84-18.98-21.74-34.08-21.74-5.34,0-10.42,1.11-15.01,3.12.89-.07,1.79-.11,2.69-.11,13.24,0,24.69,7.62,30.22,18.72h16.18s0,0,0,0h0Z"/><path class="c" d="M135.55,45.98c.91,0,1.81.04,2.69.11-4.6-2.01-9.68-3.12-15.01-3.12-15.09,0-28.11,8.9-34.08,21.74h0s16.18,0,16.18,0c0,0,0,0,0,0,5.52-11.1,16.98-18.72,30.22-18.72h0Z"/><path class="c" d="M116.2,34.35c-1.15-.34-2.33-.6-3.54-.78-.58-.09-1.17-.16-1.76-.2-.72-.06-1.46-.09-2.2-.09-.99,0-1.97.05-2.93.16-6.55.72-12.38,3.82-16.61,8.42h0c-4.23-4.6-10.06-7.7-16.61-8.42-.96-.11-1.94-.16-2.93-.16-.74,0-1.47.03-2.2.09-.59.05-1.18.12-1.76.2-1.21.18-2.39.44-3.54.78-1.14.33-2.25.75-3.32,1.22.44.04.89.09,1.33.14,13.03,1.65,23.64,9.78,29.03,20.74h0c5.38-10.96,16-19.09,29.03-20.74.45-.06.89-.1,1.33-.14-1.07-.48-2.18-.89-3.32-1.22h0Z"/><path class="c" d="M89.16,35.62h0c4.16-4.58,9.89-7.67,16.33-8.39.95-.11,1.91-.16,2.88-.16.44,0,.88.01,1.32.03-1.82-.76-3.73-1.29-5.7-1.56-.99-.13-1.99-.2-3.01-.2-.76,0-1.51.04-2.25.11-.61.06-1.21.15-1.81.26-1.24.23-2.45.56-3.64.99-3.05,1.11-5.88,2.86-8.39,5.13,1.55,1.1,2.98,2.37,4.26,3.77h0Z"/><polygon class="c" points="94.24 125.36 82.17 115.64 91.9 103.57 103.96 113.3 94.24 125.36 94.24 125.36"/><polygon class="c" points="85.47 146.39 95.2 134.32 107.26 144.05 97.54 156.11 85.47 146.39 85.47 146.39"/><polygon class="c" points="100.66 82.55 90.93 94.62 78.87 84.89 88.59 72.83 100.66 82.55 100.66 82.55"/><polygon class="c" points="120.98 127.02 111.26 139.08 99.2 129.36 108.92 117.3 120.98 127.02 120.98 127.02"/><path class="c" d="M60.19,97.92l-7.13-5.75c1.9-5.14,4.45-9.81,7.51-13.85l9.34,7.53-9.72,12.06h0Z"/><polygon class="c" points="86.93 99.58 77.21 111.64 65.15 101.92 74.87 89.85 86.93 99.58 86.93 99.58"/><polygon class="c" points="51.42 118.94 61.15 106.88 73.21 116.6 63.49 128.66 51.42 118.94 51.42 118.94"/><path class="c" d="M81.48,151.35l11.86,9.56c-1.27.09-2.57.13-3.9.13-5.25,0-9.97-.69-14.16-2l6.2-7.7h0Z"/><path class="c" d="M51.05,98.74l5.14,4.14-6.9,8.56c.17-4.4.78-8.66,1.77-12.71h0Z"/><polygon class="c" points="90.24 130.32 80.51 142.39 68.45 132.66 78.17 120.6 90.24 130.32 90.24 130.32"/><path class="c" d="M116.22,143.08l9.72-12.06,1.55,1.25c-1.46,5.56-3.67,10.45-6.65,14.54l-4.62-3.73h0Z"/><path class="c" d="M129.08,105.46c.37,2.79.56,5.65.56,8.57,0,.77,0,1.54-.03,2.29l-4.62,5.74-12.06-9.72,9.72-12.06,6.43,5.19h0Z"/><path class="c" d="M112.22,148.04l4.4,3.55c-3.65,3.4-8.09,5.96-13.34,7.55l8.94-11.1h0Z"/><path class="c" d="M57.56,146.17l6.89-8.54,12.06,9.72-7.37,9.15c-4.71-2.51-8.56-5.99-11.58-10.33h0Z"/><path class="c" d="M121.68,91.31l-12.06-9.72,5.59-6.94c3.57,3.81,6.61,8.4,8.97,13.56l-2.5,3.1h0Z"/><path class="c" d="M59.49,133.63l-5.31,6.59c-1.93-4.2-3.29-8.94-4.08-14.16l9.39,7.57h0Z"/><polygon class="c" points="107.96 108.34 95.89 98.61 105.62 86.55 117.68 96.27 107.96 108.34 107.96 108.34"/><path class="c" d="M64.76,73.52c1.28-1.27,2.62-2.45,4.02-3.52h13.91l-8.78,10.89-9.15-7.37h0Z"/><path class="c" d="M110.51,70.33l-5.85,7.26-9.42-7.59h14.85c.14.11.28.22.42.33h0Z"/></svg>